<?xml version="1.0" encoding="UTF-8"?>
<svg width="276px" height="23px" viewBox="0 0 276 23" version="1.1" xmlns="http://www.w3.org/2000/svg" xmlns:xlink="http://www.w3.org/1999/xlink">
    <!-- Generator: Sketch 64 (93537) - https://sketch.com -->
    <title>Group 7</title>
    <desc>Created with Sketch.</desc>
    <defs>
        <polygon id="path-1" points="0.0747259259 0.00387938931 15.9499259 0.00387938931 15.9499259 21 0.0747259259 21"></polygon>
        <polygon id="path-3" points="0 0.00387938931 18.9797839 0.00387938931 18.9797839 21 0 21"></polygon>
    </defs>
    <g id="Page-1" stroke="none" stroke-width="1" fill="none" fill-rule="evenodd">
        <g id="Desktop-HD-Copy-3" transform="translate(-60.000000, -60.000000)">
            <g id="Group-9">
                <g id="Group-5" transform="translate(60.000000, 53.000000)">
                    <g id="Group-7">
                        <text id="EMMERDESIGN" font-family="ProximaNova-Bold, Proxima Nova" font-size="32" font-weight="bold" letter-spacing="1.88235294">
                            <tspan x="34" y="29" fill="#C06468">EMMER</tspan>
                            <tspan x="156.019765" y="29" font-family="ProximaNova-Regular, Proxima Nova" font-weight="normal" letter-spacing="1.88" fill="#454545">DESIGN</tspan>
                        </text>
                        <g id="Group-7-Copy" transform="translate(0.000000, 8.000000)">
                            <g id="Group-3" transform="translate(16.000000, 0.000000)">
                                <mask id="mask-2" fill="white">
                                    <use xlink:href="#path-1"></use>
                                </mask>
                                <g id="Clip-2"></g>
                                <path d="M5.65161481,3.93873435 C9.6370963,3.93873435 11.731763,6.80323053 11.731763,10.5176656 C11.731763,14.0746809 9.49161481,17.0651771 5.65161481,17.0651771 L4.65013333,17.0651771 L4.6485037,17.0651771 C4.53235556,17.0648565 4.42376296,17.1224061 4.35013333,17.2195511 C3.30628148,18.594971 1.90524444,19.6363145 0.236059259,20.2746504 C0.139911111,20.3115206 0.0747259259,20.4086656 0.0747259259,20.519116 C0.0747259259,20.784742 0.273688889,21.0000321 0.51917037,21.0000321 L5.65161481,21.0000321 C11.731763,21.0000321 15.9499852,16.8449176 15.9499852,10.5176656 C15.9499852,4.19041374 11.731763,0.00387938931 5.65161481,0.00387938931 L0.51917037,0.00387938931 C0.273688889,0.00387938931 0.0747259259,0.219329771 0.0747259259,0.48479542 C0.0747259259,0.597970992 0.141392593,0.697520611 0.239762963,0.735512977 C1.89442963,1.37288702 3.2850963,2.40829924 4.32554074,3.7721771 C4.40539259,3.87685649 4.52287407,3.93905496 4.64835556,3.93873435 L5.65161481,3.93873435 Z" id="Fill-1" fill="#C06468" mask="url(#mask-2)"></path>
                            </g>
                            <g id="Group-6">
                                <mask id="mask-4" fill="white">
                                    <use xlink:href="#path-3"></use>
                                </mask>
                                <g id="Clip-5"></g>
                                <path d="M14.51938,10.5176656 C14.51938,6.80323053 12.3046084,3.93873435 8.09015099,3.93873435 L4.83801791,3.93873435 C4.57844255,3.93873435 4.36805649,4.15418473 4.36805649,4.41965038 L4.36805649,16.5842611 C4.36805649,16.849887 4.57844255,17.0651771 4.83801791,17.0651771 L8.09015099,17.0651771 C12.1507744,17.0651771 14.51938,14.0746809 14.51938,10.5176656 M-7.83269046e-05,20.519116 L-7.83269046e-05,0.48479542 C-7.83269046e-05,0.219329771 0.210464392,0.00387938931 0.4698831,0.00387938931 L8.09015099,0.00387938931 C14.51938,0.00387938931 18.9797839,4.19041374 18.9797839,10.5176656 C18.9797839,16.8449176 14.51938,21.0000321 8.09015099,21.0000321 L0.4698831,21.0000321 C0.210464392,21.0000321 -7.83269046e-05,20.784742 -7.83269046e-05,20.519116" id="Fill-4" fill="#C06468" mask="url(#mask-4)"></path>
                            </g>
                        </g>
                    </g>
                </g>
            </g>
        </g>
    </g>
</svg>