<?xml version="1.0" encoding="UTF-8"?>
<svg width="224px" height="49px" viewBox="0 0 224 49" version="1.1" xmlns="http://www.w3.org/2000/svg" xmlns:xlink="http://www.w3.org/1999/xlink">
    <!-- Generator: Sketch 64 (93537) - https://sketch.com -->
    <title>Group 23</title>
    <desc>Created with Sketch.</desc>
    <defs>
        <polygon id="path-1" points="0 0.0541666667 38.6377974 0.0541666667 38.6377974 48.9993519 0 48.9993519"></polygon>
        <polygon id="path-3" points="0.412474675 0.0541666667 21.0439514 0.0541666667 21.0439514 48.25388 0.412474675 48.25388"></polygon>
    </defs>
    <g id="Page-1" stroke="none" stroke-width="1" fill="none" fill-rule="evenodd">
        <g id="Desktop-HD-Copy-6" transform="translate(-260.000000, -263.000000)">
            <g id="Group" transform="translate(260.000000, 263.000000)">
                <g id="Group-23">
                    <g id="Group-3">
                        <mask id="mask-2" fill="white">
                            <use xlink:href="#path-1"></use>
                        </mask>
                        <g id="Clip-2"></g>
                        <path d="M9.91475862,47.3425 C7.72165517,44.9813889 5.50096552,40.8244444 8.35337931,34.8980556 C8.35337931,34.8980556 9.79062069,49.3938889 21.1630345,48.9911111 C32.5368276,48.5980556 38.6377974,39.8438889 38.6377974,29.6855556 C38.6377974,29.6855556 38.694069,26.6994444 37.2002759,23.0841667 C37.2002759,23.0841667 37.4264828,29.2563889 31.2209655,32.4175 C31.2209655,32.4175 42.432,16.8369444 28.3809655,6.45361111 C28.3809655,6.45361111 30.6223448,12.3966667 26.5906207,14.3508333 C26.5906207,14.3508333 25.5423448,0.881388889 10.7423448,0.0536111111 C10.7423448,0.0536111111 20.2347586,8.63555556 12.6871724,21.13 C12.6871724,21.13 13.3575172,12.0994444 4.76165517,12.4716667 C4.76165517,12.4716667 8.99062069,16.3522222 4.38786207,21.3536111 C-1.28937931,27.5230556 -0.212137931,35.2008333 0.843034483,37.6369444 C2.66648276,41.8286111 5.89131034,45.255 9.91475862,47.3425" id="Fill-1" fill="#16A9E1" mask="url(#mask-2)"></path>
                    </g>
                    <g id="Group-6" transform="translate(47.000000, 0.000000)">
                        <mask id="mask-4" fill="white">
                            <use xlink:href="#path-3"></use>
                        </mask>
                        <g id="Clip-5"></g>
                        <path d="M11.100375,17.5858333 C11.100375,17.24 10.96425,15.7288889 10.487125,15.7288889 C10.1475,15.7288889 10.011375,17.4469444 10.011375,17.7233333 C9.670375,23.0858333 9.466875,26.5233333 9.125875,30.9247222 C9.125875,31.4038889 9.466875,31.4719444 10.487125,31.4719444 C11.372625,31.4719444 12.051875,31.6094444 11.985875,30.9913889 C11.644875,25.9025 11.441375,23.0163889 11.100375,17.5858333 M17.292,48.2469444 C15.32025,48.2469444 14.02775,48.3858333 13.891625,47.4205556 C13.34575,43.5705556 13.074875,40.9580556 12.529,37.1775 C12.461625,36.49 11.644875,36.6275 10.5545,36.6275 C9.262,36.6275 8.58,36.49 8.515375,37.1775 C8.105625,41.0288889 7.833375,43.5705556 7.492375,47.5580556 C7.425,48.315 5.92625,48.2469444 3.749625,48.2469444 C2.728,48.2469444 0.3465,48.2469444 0.413875,47.6275 C2.932875,29.6844444 4.7025,17.6538889 6.9465,1.08583333 C7.084,0.124722222 8.98975,0.0538888889 10.487125,0.0538888889 C12.188,0.0538888889 13.959,0.124722222 14.163875,1.29138889 C16.748875,18.89 18.313625,29.6163889 21.0375,47.5580556 C21.173625,48.315 19.130375,48.2469444 17.292,48.2469444" id="Fill-4" fill="#FFFFFF" mask="url(#mask-4)"></path>
                    </g>
                    <path d="M86.1765604,6.71880862 L83.2202319,6.71880862 C82.4634451,6.71880862 81.5705756,6.71880862 81.2275915,6.85734076 C80.6082761,7.33527663 80.7443588,8.50310254 80.7443588,9.39386418 L80.7443588,47.3142659 C80.7443588,47.9307339 79.9889606,48 76.759078,48 C73.873568,48 73.2542526,48 73.2542526,47.3142659 L73.2542526,9.39386418 C73.2542526,8.50310254 73.3917239,7.33527663 72.7724085,6.85734076 C72.4294244,6.71880862 71.5365549,6.71880862 70.7797681,6.71880862 L68.2358536,6.71880862 C67.2055127,6.71880862 67,6.23810211 67,3.35940431 C67,0.477935871 67.1374714,0 67.9609109,0 L86.1085191,0 C86.9319586,0 87,0.616468008 87,3.2222575 C87,6.37524892 86.9319586,6.71880862 86.1765604,6.71880862" id="Fill-7" fill="#FFFFFF"></path>
                    <path d="M107.357956,48 C103.714524,48 103.57845,47.9305427 103.57845,46.6247454 L103.57845,28.4033167 C103.57845,27.5781639 103.57845,26.8905366 102.959178,26.8210793 C102.134407,26.6140966 99.1116357,26.751622 98.8353235,26.8210793 C98.2868648,27.0280621 98.2868648,27.6476212 98.2868648,28.539453 L98.2868648,46.8997963 C98.2868648,48 98.0785893,48 94.5045821,48 C91.1374618,48 91,48 91,47.0373218 L91,1.24273315 C91,0.210597632 91.206887,0.005004017 94.5045821,0.005004017 C98.1494029,0.005004017 98.3549014,0.210597632 98.3549014,1.3108013 L98.3549014,17.4026691 C98.3549014,18.5695518 98.3549014,19.3266364 99.2490975,19.6030765 C99.8669814,19.6697555 102.271869,19.8072809 103.028603,19.6030765 C103.57845,19.3947046 103.57845,18.63762 103.57845,17.6082627 L103.57845,1.03436124 C103.57845,-0.132521442 103.990836,0.005004017 107.289919,0.005004017 C110.793113,0.005004017 111,0.005004017 111,1.10381854 L111,46.6247454 C111,47.9305427 111,48 107.357956,48" id="Fill-9" fill="#FFFFFF"></path>
                    <path d="M132.088757,48 L118.663112,48 C117.682643,48 116.703587,48 116.354631,47.5885477 C115.935035,47.1064419 116.004261,46.0785038 116.004261,45.1877165 L116.004261,1.09443547 C116.004261,0.135765412 116.354631,0 119.500891,0 C123.068159,0 123.487755,0.0678827061 123.487755,1.16231817 L123.487755,38.6044793 C123.487755,39.496652 123.415703,40.6603556 123.90735,41.0053106 C124.25772,41.2117294 125.096911,41.2782267 125.797649,41.2782267 L132.019531,41.2782267 C132.927948,41.2782267 133,41.6217964 133,44.503348 C133,47.7949665 132.927948,48 132.088757,48" id="Fill-11" fill="#FFFFFF"></path>
                    <path d="M140.337424,48 C137.130853,48 137,48 137,47.0372214 L137,1.09892909 C137,0.0694645441 137.260385,0 140.337424,0 C143.804381,0 144,0.0694645441 144,1.16700434 L144,46.8996816 C144,47.9305355 143.936556,48 140.337424,48" id="Fill-13" fill="#FFFFFF"></path>
                    <path d="M167.582372,48 C165.801056,48 165.050665,47.8614639 164.569751,46.1463865 C162.31305,38.1944124 161.493562,34.5578388 159.098667,25.9173401 C158.688232,24.4114523 158.143749,21.8734703 157.662835,21.8734703 C157.186067,21.8734703 157.186067,23.3128608 157.186067,24.2050335 L157.186067,46.7642577 C157.186067,47.8614639 156.977395,48 153.420292,48 C150,48 150,47.8614639 150,46.8349111 L150,0.957284692 C150,0 150.138194,0 153.145286,0 C156.090192,0 156.499245,0.271530824 156.977395,2.19302701 C158.483705,7.81482337 160.468165,15.1530824 162.518958,22.4220734 C162.723485,23.1050566 162.929393,24.2050335 163.339828,24.2050335 C163.816596,24.2050335 163.816596,22.9027938 163.816596,22.1463865 L163.816596,1.23020088 C163.816596,0.135765412 164.022505,0 167.444178,0 C170.932185,0 171,0.0678827061 171,1.16231817 L171,46.0092357 C171,47.7949665 171.068996,48 167.582372,48" id="Fill-15" fill="#FFFFFF"></path>
                    <path d="M194.310394,47.9943729 C191.189527,47.9943729 190.565914,48.1330889 190.289843,47.0330705 C188.4148,39.6173094 187.237643,35.0854554 185.431268,27.6696944 C185.293933,27.0524079 184.807655,26.9150789 183.975237,28.7697128 C183.559028,29.729628 183.421693,30.6215723 183.421693,31.6522327 L183.421693,46.7570255 C183.421693,47.8556568 181.686788,47.9943729 179.675812,47.9943729 C177.87224,47.9943729 176,47.8556568 176,46.8957416 L176,0.961302361 C176,0.067970874 178.079644,0 179.607145,0 C181.201912,0 183.421693,0 183.421693,1.02788607 L183.421693,17.644684 C183.421693,18.1260288 183.354427,19.155302 183.767833,19.0179731 C183.975237,18.9500022 184.115375,18.1939997 184.254111,17.7126549 C186.195019,11.1208673 187.096104,7.55170282 189.038413,0.890557166 C189.247218,0.134554587 189.663427,0.203912622 192.92303,0.203912622 C196.322771,0.203912622 196.949187,0.4799576 196.809049,0.890557166 C194.450531,8.23834736 193.549446,11.1208673 191.122261,18.1260288 C190.841985,18.8820314 190.634581,19.7046177 190.634581,20.3912622 C190.634581,21.0085487 190.774719,21.5578643 191.122261,22.8645697 C193.825517,32.2015484 195.142812,37.0080602 197.986206,47.1690122 C198.057676,47.5823861 197.986206,47.9943729 194.310394,47.9943729" id="Fill-17" fill="#FFFFFF"></path>
                    <path d="M218.920137,42.3075502 C216.62116,46.4927269 215.067577,48 210.203413,48 C204.660751,48 200.404096,44.6404987 200.404096,38.3994459 L200.404096,34.5578388 C200.404096,33.9427384 201.012969,33.872085 203.713311,33.872085 C206.417747,33.872085 207.702389,33.872085 207.702389,34.4220734 L207.702389,37.3022397 C207.702389,39.8402217 208.174744,41.3488802 210.203413,41.3488802 C212.024573,41.3488802 212.499659,39.9759871 212.634812,38.8108982 C212.701706,37.6444239 212.771331,36.6178712 212.771331,35.6564304 C212.771331,29.6910644 200,21.3927499 200,11.1078273 C200,9.18771646 200.809556,6.03186331 201.690102,4.45670746 C202.566553,2.87878088 204.999317,0 209.593174,0 C215.339249,0 219.189078,4.31817132 219.189078,9.32348187 L219.189078,12.6829831 C219.189078,13.1637035 218.243003,13.0958208 215.946758,13.0958208 C213.37884,13.0958208 212.024573,13.0958208 212.024573,12.6151004 L212.024573,9.46063265 C212.024573,7.54190718 210.742662,6.37543293 209.593174,6.37543293 C208.379522,6.37543293 207.433447,7.47125375 207.296928,8.5698453 C207.161775,9.59916878 207.094881,10.4220734 207.094881,11.3128608 C207.094881,19.4047564 220,24.9586701 220,36.1371508 C220,38.1944124 219.731058,40.8002771 218.920137,42.3075502" id="Fill-19" fill="#FFFFFF"></path>
                    <path d="M221.708751,45.9032827 L221.921826,45.9032827 C222.172259,45.9032827 222.372881,45.817155 222.372881,45.612425 C222.372881,45.4302859 222.244206,45.3088599 221.959184,45.3088599 C221.840194,45.3088599 221.755794,45.3215672 221.708751,45.3342746 L221.708751,45.9032827 Z M221.696299,47.0300035 L221.245244,47.0300035 L221.245244,45.0420049 C221.423729,45.0052947 221.672778,44.9812919 221.993774,44.9812919 C222.361813,44.9812919 222.527845,45.0420049 222.670356,45.1267208 C222.776894,45.2128486 222.85991,45.3695729 222.85991,45.5630074 C222.85991,45.7818567 222.693878,45.9512884 222.457281,46.0247088 L222.457281,46.0487116 C222.646835,46.1207201 222.754756,46.266149 222.812868,46.5330039 C222.873746,46.836569 222.906953,46.9579951 222.955379,47.0300035 L222.46835,47.0300035 C222.410239,46.9579951 222.372881,46.775856 222.313386,46.5457113 C222.278796,46.326862 222.159806,46.2294388 221.910758,46.2294388 L221.696299,46.2294388 L221.696299,47.0300035 Z M220.496714,45.9879986 C220.496714,46.8732792 221.138706,47.5764208 222.017295,47.5764208 C222.873746,47.5764208 223.503286,46.8732792 223.503286,46.000706 C223.503286,45.1154253 222.873746,44.3995764 222.006226,44.3995764 C221.138706,44.3995764 220.496714,45.1154253 220.496714,45.9879986 L220.496714,45.9879986 Z M224,45.9879986 C224,47.1147194 223.133864,48 222.006226,48 C220.889658,48 220,47.1147194 220,45.9879986 C220,44.8852806 220.889658,44 222.006226,44 C223.133864,44 224,44.8852806 224,45.9879986 L224,45.9879986 Z" id="Fill-21" fill="#FFFFFF"></path>
                </g>
            </g>
        </g>
    </g>
</svg>