<?xml version="1.0" encoding="UTF-8"?>
<svg width="225px" height="54px" viewBox="0 0 225 54" version="1.1" xmlns="http://www.w3.org/2000/svg" xmlns:xlink="http://www.w3.org/1999/xlink">
    <!-- Generator: Sketch 64 (93537) - https://sketch.com -->
    <title>Group 24</title>
    <desc>Created with Sketch.</desc>
    <defs>
        <linearGradient x1="39.2738468%" y1="34.9383854%" x2="91.9130403%" y2="60.6631141%" id="linearGradient-1">
            <stop stop-color="#D12F00" offset="0%"></stop>
            <stop stop-color="#F03C00" stop-opacity="0.75" offset="47.270807%"></stop>
            <stop stop-color="#FA4100" stop-opacity="0.922543298" offset="73.0067144%"></stop>
            <stop stop-color="#FF4300" offset="100%"></stop>
        </linearGradient>
        <path d="M12.7884572,14.7284723 L1.63257428,16.0535714 C0.730864625,16.0535714 0,15.4602555 0,14.7284723 L0,9.86974198 C0,9.13785818 0.730864625,8.54464286 1.63257428,8.54464286 L12.7884572,9.86974198 C13.6900429,9.86974198 13.6900429,14.7284723 12.7884572,14.7284723" id="path-2"></path>
        <filter x="-118.8%" y="-186.4%" width="337.7%" height="526.2%" filterUnits="objectBoundingBox" id="filter-3">
            <feOffset dx="0" dy="2" in="SourceAlpha" result="shadowOffsetOuter1"></feOffset>
            <feGaussianBlur stdDeviation="5" in="shadowOffsetOuter1" result="shadowBlurOuter1"></feGaussianBlur>
            <feColorMatrix values="0 0 0 0 0   0 0 0 0 0   0 0 0 0 0  0 0 0 0.15 0" type="matrix" in="shadowBlurOuter1"></feColorMatrix>
        </filter>
        <linearGradient x1="41.8804296%" y1="65.377299%" x2="64.1182305%" y2="34.622701%" id="linearGradient-4">
            <stop stop-color="#FF3D00" offset="0%"></stop>
            <stop stop-color="#FF4300" offset="48.9448167%"></stop>
            <stop stop-color="#FF5300" offset="75.2850776%"></stop>
            <stop stop-color="#FF7000" offset="100%"></stop>
        </linearGradient>
        <path d="M7.96613174,0.396395977 L14.0581872,7.1717572 C19.150265,4.44272536 26.3443573,3.24726408 33.3034998,2.91600747 C46.0416815,2.30969626 53.2323232,7.90297314 53.2323232,17.5038838 C53.2323232,21.5350093 51.7034941,23.9670678 49.0977321,26.6863156 C48.773465,27.0247597 37.3713083,29 31.5974492,29 C23.6841939,29 11.518241,27.0247597 11.1939739,26.6863156 C8.58808824,23.9670678 7.05938276,21.5350093 7.05938276,17.5038838 C7.05938276,14.8302725 7.9382013,12.6110253 9.45870574,10.7782212 L1.4179947,5.81982067 C0.779860353,5.2912927 0.779860353,4.43425921 1.4179947,3.90573124 L5.65497345,0.396395977 C6.2932319,-0.132131992 7.3279974,-0.132131992 7.96613174,0.396395977 Z M33.0472791,12.6244591 C27.9336832,12.2832379 14.7721277,6.81130153 14.7721277,16.2614423 C14.7721277,18.8298483 15.9967823,21.4249789 21.1482211,21.4809684 C23.996175,21.5119608 27.7433594,20.2421871 32.0393273,20.2421871 C34.5699927,20.2421871 38.5892268,20.5332108 42.3578596,20.7357283 C46.5570631,20.9614139 48.9094848,18.6503972 48.9094848,16.2614423 C49.2801478,9.33835046 41.1449153,12.7230251 33.0472791,12.6244591 Z" id="path-5"></path>
        <filter x="-30.6%" y="-48.3%" width="161.2%" height="210.3%" filterUnits="objectBoundingBox" id="filter-6">
            <feOffset dx="0" dy="2" in="SourceAlpha" result="shadowOffsetOuter1"></feOffset>
            <feGaussianBlur stdDeviation="5" in="shadowOffsetOuter1" result="shadowBlurOuter1"></feGaussianBlur>
            <feColorMatrix values="0 0 0 0 0   0 0 0 0 0   0 0 0 0 0  0 0 0 0.15 0" type="matrix" in="shadowBlurOuter1"></feColorMatrix>
        </filter>
    </defs>
    <g id="Planfu" stroke="none" stroke-width="1" fill="none" fill-rule="evenodd">
        <g id="Desktop-HD-Copy-5" transform="translate(-251.000000, -265.000000)">
            <g id="Group" transform="translate(260.000000, 265.000000)">
                <g id="Group-24" transform="translate(1.000000, 0.000000)">
                    <g id="Logos/Planfu" transform="translate(59.000000, 0.000000)" fill="#EEEEEE" fill-rule="nonzero">
                        <path d="M74.0176675,14.9079989 C73.6170884,14.3852459 73.0050235,14.0710854 72.2001333,13.9744206 L72.1304674,13.9655172 L72.0608015,13.9655172 C70.6836555,13.9655172 69.6971363,14.8227812 69.3438305,16.3185415 L69.3289021,16.3859525 L69.3201939,16.4533635 L69.216939,17.3195308 C66.8532738,15.0924251 64.0927617,13.9655172 60.9864079,13.9655172 L60.2474516,13.9655172 C58.16245,13.9655172 55.9468249,14.5111645 53.6602898,15.5871962 L53.6067963,15.6126343 L53.5545469,15.64316 C48.3992687,18.7427925 45.477032,22.8930187 44.8674552,27.9653759 L44.7766407,28.7196156 C44.4830486,31.165489 44.933389,33.6507914 46.1164657,36.10684 L46.1388583,36.1539005 L46.164983,36.1996891 C48.7637707,40.5979367 52.3727143,42.8275862 56.891047,42.8275862 L57.5367008,42.8275862 C60.7139644,42.8275862 63.7295036,41.7680893 66.532313,39.6707179 L66.498724,39.9479932 C66.390493,40.8523177 66.679109,41.4488412 66.9416003,41.7897117 C67.3434233,42.3137366 67.9542442,42.6278971 68.7591344,42.7245619 L68.8288003,42.7334652 L68.8997103,42.7334652 C70.2768563,42.7334652 71.2633755,41.8749293 71.6166812,40.3804409 L71.6316097,40.31303 L71.6403179,40.245619 L74.4617877,16.7522612 C74.5637986,15.8403053 74.2739386,15.2488694 74.0176675,14.9079989 Z M67.8982626,28.2477388 C67.7203657,29.7218768 67.1182531,31.2761447 66.1056092,32.8698417 C63.6411772,36.0216224 60.916742,37.5542679 57.7780434,37.5542679 C56.3096192,37.5525314 54.8667748,37.1611689 53.5906239,36.4184568 C50.7592018,34.3834087 49.569905,31.8395986 49.9543116,28.6394856 C50.1235002,27.2302148 50.6248461,25.8196721 51.4471528,24.442199 C53.8643115,20.9419163 56.6944895,19.2388355 60.0844831,19.2388355 C62.4829812,19.2388355 64.4497995,20.1189938 66.0969009,21.9289146 C67.5897421,23.839316 68.1794144,25.9061617 67.8982626,28.2477388 Z" id="Shape"></path>
                        <path d="M104.627743,20.3216458 L104.604087,20.2733244 L104.57545,20.227481 C101.990693,16.0718367 98.4049039,13.9655172 93.9164416,13.9655172 L92.9938478,13.9655172 C90.5597441,13.9655172 87.9363904,14.7609626 85.1984907,16.329551 L85.1424627,16.3617653 L85.0901699,16.3989357 C80.7735267,19.5286785 78.3257273,23.2048254 77.8177405,27.3257774 L76.3547881,39.1831167 L76.3448276,39.2624134 L76.3448276,39.3417102 C76.3659937,41.2250075 77.5102092,41.8965517 78.5722503,41.8965517 L78.9457701,41.8965517 C80.6988228,41.8965517 81.2989445,40.3069001 81.4744988,39.6229658 L81.4931748,39.5486251 L81.5031353,39.4730454 L82.8303755,28.7196653 C83.0075526,27.3422475 83.3937703,25.9995654 83.975836,24.7374825 C86.4771733,20.9572587 89.4267342,19.1123707 92.9938478,19.1012196 C93.8004434,19.1365418 94.6024028,19.2418442 95.3905995,19.4159285 C97.4711045,20.2250029 98.9714088,21.3748055 99.8516704,22.833122 C100.731932,24.2914384 101.053159,26.1908429 100.776754,28.4297366 L99.4457789,39.1831167 L99.4370635,39.2611744 L99.4370635,39.3404712 C99.4582296,41.2250075 100.6012,41.8965517 101.663241,41.8965517 L102.036761,41.8965517 C103.791059,41.8965517 104.38869,40.3069001 104.56549,39.6229658 L104.584166,39.5486251 L104.592881,39.4730454 L106.055833,27.6157061 C106.345934,25.2429992 105.866583,22.7934736 104.627743,20.3216458 Z" id="Shape"></path>
                        <path d="M155.482759,16.5178808 C155.459104,14.6358224 154.317461,13.9655172 153.257987,13.9655172 L152.884494,13.9655172 C151.127834,13.9655172 150.53149,15.5551689 150.355949,16.2391032 L150.337274,16.3134439 L150.328559,16.3877846 L149.03503,26.8661042 C148.766115,29.0442862 148.139892,30.7987264 147.167566,32.0786252 C144.708739,35.2170411 141.982243,36.7484593 138.833699,36.7596104 C138.024243,36.7231262 137.219477,36.6170014 136.428406,36.4424234 C134.348052,35.6556512 132.849101,34.5182387 131.970149,33.0624003 C131.079991,31.5879767 130.769992,29.6935282 131.048867,27.4323324 L132.376011,16.6777132 L132.38597,16.5984165 L132.38597,16.5191198 C132.362316,14.6358224 131.220673,13.9655172 130.159954,13.9655172 L129.786461,13.9655172 C128.028556,13.9655172 127.432212,15.5564079 127.257916,16.2403422 L127.239241,16.3134439 L127.230526,16.3877846 L125.77515,28.2451239 C125.451456,30.8730671 126.047799,33.5047274 127.54924,36.067003 L127.570405,36.1016953 L127.594059,36.1363876 C130.208508,39.9587379 133.675765,41.8965517 137.911172,41.8965517 L138.836189,41.8965517 C140.851805,41.8965517 143.141315,41.3018262 145.643716,40.1284824 L145.710945,40.0975071 L145.773194,40.0578588 C150.674663,36.9764374 153.449713,33.0685953 154.019912,28.4433657 L155.471554,16.6727572 L155.481514,16.5934605 L155.482759,16.5178808 Z" id="Shape"></path>
                        <path d="M123.259275,15.1830413 C122.806418,14.6520557 122.137339,14.3537702 121.438858,14.3714721 L118.070774,14.3714721 L118.665068,9.53701668 C118.717133,9.15772987 118.908939,8.81140866 119.203061,8.56563075 C119.461164,8.30398027 119.812321,8.15456396 120.180206,8.14985759 C121.012218,8.14111762 121.759152,7.60298479 122.230833,6.67405017 C122.566358,5.99264172 122.740169,5.24329092 122.738799,4.48406184 C122.728789,2.66864392 121.646548,1.86206897 120.579321,1.86206897 L120.541787,1.86206897 C119.233088,1.86206897 118.333514,1.93573448 116.405499,3.40280192 C114.611356,4.75874681 113.504092,6.78017846 113.200063,9.23985749 L112.574491,14.3664778 L110.807873,14.3664778 C109.050013,14.3664778 108.000302,15.8647595 108.000302,17.3018613 C107.990947,17.9111768 108.199422,18.5038873 108.58834,18.9736939 C109.053124,19.5043246 109.730267,19.8012512 110.436282,19.7840145 L111.902625,19.7840145 L109.390325,40.2118362 C109.300466,40.8520661 109.49409,41.4996415 109.92081,41.9860514 C110.394995,42.5204385 111.138175,42.8275862 111.961429,42.8275862 C113.475316,42.8275862 114.693931,41.8499574 114.859083,40.5040011 L117.407667,19.7890088 L121.071021,19.7890088 C121.890258,19.7916784 122.66349,19.4114036 123.160435,18.7614373 C123.59032,18.2077667 123.824767,17.5278234 123.827295,16.8274054 C123.836313,16.2298867 123.635339,15.6480873 123.259275,15.1830413 Z" id="Shape"></path>
                        <path d="M44.0616114,0.802657558 C43.5735041,0.286857753 42.8754994,-0.00540661625 42.1448336,0 L42.0909694,0 C40.636978,0.0160849202 39.4151808,1.04089117 39.2204008,2.40782114 L34.4711534,39.196974 C34.3728257,39.8830517 34.5944553,40.5757255 35.0781985,41.0942129 C35.5619418,41.6127003 36.2597987,41.9055537 36.989634,41.8965517 L37.0382431,41.8965517 C38.4917334,41.8797179 39.7127918,40.8550625 39.907498,39.4885953 L44.6685692,2.69944247 C44.7622034,2.0138808 44.5411797,1.32316664 44.0616114,0.802657558 Z" id="Shape"></path>
                        <path d="M30.2073339,20.6044266 L30.1858736,20.5591955 L30.1593639,20.5164774 C27.5386866,16.1692733 23.8765552,13.9655172 19.2739592,13.9655172 L18.3372817,13.9655172 C15.6976689,13.9655172 12.9532795,14.8450094 10.1836427,16.5738397 L10.1533458,16.5926859 L10.1255737,16.6127886 C5.88653988,19.6156261 3.46152974,23.3773397 2.91744886,27.7949031 L0.0240999662,51.248446 C-0.0869884732,52.1430151 0.207143417,52.7322749 0.473503198,53.0689947 C0.879985896,53.5853823 1.50107126,53.8957174 2.3165614,53.9924615 L2.38725404,54 L2.45920905,54 C3.85665112,54 4.85770945,53.1531747 5.21495977,51.6756279 L5.23137056,51.6102942 L5.23894477,51.5424476 L6.76641081,39.1667366 C9.16491121,41.3679799 11.9661072,42.4799092 15.1182417,42.4799092 L16.0549192,42.4799092 C18.3372817,42.4799092 20.8834792,41.7423922 23.6215567,40.2874609 L23.6846752,40.2535377 L23.7427441,40.2120759 C28.3188304,37.0396221 30.9129979,33.2125748 31.4520293,28.8377295 L31.5669049,27.9054679 C31.8648239,25.4918901 31.4078464,23.0305685 30.2073339,20.6044266 Z M26.3596343,27.2156947 C26.3066148,28.5851896 25.9165429,29.9974028 25.1995175,31.415898 C23.0206693,35.0356364 20.2421959,36.9441343 16.7063014,37.2343667 C16.4841245,37.253213 16.2581605,37.2620079 16.0347213,37.2620079 C14.7222283,37.2444316 13.4281,36.9524959 12.2362541,36.4051313 C9.29114807,34.6360956 7.91642863,32.2865952 8.03256655,29.2259625 C8.08558603,27.8439034 8.47439557,26.4316903 9.19142095,25.0270157 C11.3702692,21.4072773 14.1146586,19.4987793 17.5912218,19.214829 C17.8436955,19.1934699 18.0961693,19.1834185 18.348643,19.1834185 C19.6028504,19.1872799 20.8422815,19.4530878 21.9867894,19.9636537 C25.0480333,21.7000225 26.4782969,24.0708821 26.3596343,27.2156947 Z" id="Shape"></path>
                    </g>
                    <g id="Group-36" transform="translate(0.000000, 12.000000)">
                        <g id="Logos/Ninja-Final-Copy">
                            <g id="Group-10">
                                <g id="Fill-3">
                                    <use fill="black" fill-opacity="1" filter="url(#filter-3)" xlink:href="#path-2"></use>
                                    <use fill="url(#linearGradient-1)" fill-rule="evenodd" xlink:href="#path-2"></use>
                                </g>
                                <g id="Combined-Shape">
                                    <use fill="black" fill-opacity="1" filter="url(#filter-6)" xlink:href="#path-5"></use>
                                    <use fill="url(#linearGradient-4)" fill-rule="evenodd" xlink:href="#path-5"></use>
                                </g>
                            </g>
                        </g>
                    </g>
                </g>
            </g>
        </g>
    </g>
</svg>