<?xml version="1.0" encoding="UTF-8"?>
<svg width="276px" height="23px" viewBox="0 0 276 23" version="1.1" xmlns="http://www.w3.org/2000/svg" xmlns:xlink="http://www.w3.org/1999/xlink">
    <!-- Generator: Sketch 64 (93537) - https://sketch.com -->
    <title>Group 7</title>
    <desc>Created with Sketch.</desc>
    <defs>
        <polygon id="path-1" points="0.0747259259 0.00387938931 15.9499259 0.00387938931 15.9499259 21 0.0747259259 21"></polygon>
        <polygon id="path-3" points="0 0.00387938931 18.9797839 0.00387938931 18.9797839 21 0 21"></polygon>
    </defs>
    <g id="Page-1" stroke="none" stroke-width="1" fill="none" fill-rule="evenodd">
        <g id="Artboard" transform="translate(-13.000000, -46.000000)">
            <g id="Group-7" transform="translate(13.000000, 46.000000)">
                <g id="EMMERDESIGN" transform="translate(36.112000, 0.304000)" fill-rule="nonzero">
                    <path d="M15.104,21.696 L15.104,17.696 L4.544,17.696 L4.544,12.864 L14.88,12.864 L14.88,8.864 L4.544,8.864 L4.544,4.352 L15.104,4.352 L15.104,0.352 L1.56319402e-13,0.352 L1.56319402e-13,21.696 L15.104,21.696 Z M25.0823529,21.696 L25.0823529,6.752 L31.0983529,21.696 L33.0823529,21.696 L39.0983529,6.752 L39.0983529,21.696 L43.6743529,21.696 L43.6743529,0.352 L37.2743529,0.352 L32.0903529,13.248 L26.9063529,0.352 L20.5383529,0.352 L20.5383529,21.696 L25.0823529,21.696 Z M54.3247059,21.696 L54.3247059,6.752 L60.3407059,21.696 L62.3247059,21.696 L68.3407059,6.752 L68.3407059,21.696 L72.9167059,21.696 L72.9167059,0.352 L66.5167059,0.352 L61.3327059,13.248 L56.1487059,0.352 L49.7807059,0.352 L49.7807059,21.696 L54.3247059,21.696 Z M94.1270588,21.696 L94.1270588,17.696 L83.5670588,17.696 L83.5670588,12.864 L93.9030588,12.864 L93.9030588,8.864 L83.5670588,8.864 L83.5670588,4.352 L94.1270588,4.352 L94.1270588,0.352 L79.0230588,0.352 L79.0230588,21.696 L94.1270588,21.696 Z M104.105412,21.696 L104.105412,14.112 L107.433412,14.112 L111.625412,21.696 L116.841412,21.696 L112.041412,13.568 C114.345412,13.024 116.713412,11.008 116.713412,7.232 C116.713412,3.264 113.993412,0.352 109.545412,0.352 L99.5614118,0.352 L99.5614118,21.696 L104.105412,21.696 Z M108.873412,10.112 L104.105412,10.112 L104.105412,4.352 L108.873412,4.352 C110.697412,4.352 112.073412,5.44 112.073412,7.232 C112.073412,9.024 110.697412,10.112 108.873412,10.112 Z" id="EMMER" fill="#C06468"></path>
                    <path d="M129.699765,21.696 C136.323765,21.696 140.643765,17.12 140.643765,11.04 C140.643765,4.992 136.323765,0.352 129.699765,0.352 L122.403765,0.352 L122.403765,21.696 L129.699765,21.696 Z M129.699765,19.328 L125.059765,19.328 L125.059765,2.72 L129.699765,2.72 C134.979765,2.72 137.891765,6.432 137.891765,11.04 C137.891765,15.616 134.883765,19.328 129.699765,19.328 Z M160.667765,21.696 L160.667765,19.328 L149.339765,19.328 L149.339765,11.968 L160.443765,11.968 L160.443765,9.6 L149.339765,9.6 L149.339765,2.72 L160.667765,2.72 L160.667765,0.352 L146.683765,0.352 L146.683765,21.696 L160.667765,21.696 Z M173.683765,22.08 C179.443765,22.08 181.555765,18.912 181.555765,15.808 C181.555765,7.84 168.915765,10.592 168.915765,5.792 C168.915765,3.776 170.739765,2.4 173.299765,2.4 C175.635765,2.4 177.875765,3.2 179.475765,4.96 L181.075765,3.008 C179.283765,1.12 176.755765,0.032 173.491765,0.032 C169.299765,0.032 166.163765,2.432 166.163765,5.952 C166.163765,13.568 178.803765,10.528 178.803765,16.032 C178.803765,17.664 177.587765,19.712 173.779765,19.712 C170.771765,19.712 168.467765,18.24 167.059765,16.672 L165.491765,18.688 C167.251765,20.672 169.971765,22.08 173.683765,22.08 Z M190.059765,21.696 L190.059765,0.352 L187.403765,0.352 L187.403765,21.696 L190.059765,21.696 Z M207.043765,22.112 C210.531765,22.112 213.443765,20.64 215.427765,18.432 L215.427765,10.72 L205.443765,10.72 L205.443765,13.088 L212.771765,13.088 L212.771765,17.44 C211.715765,18.496 209.603765,19.744 207.043765,19.744 C202.371765,19.744 198.819765,16.096 198.819765,11.04 C198.819765,5.952 202.371765,2.368 207.043765,2.368 C209.603765,2.368 211.875765,3.584 213.219765,5.312 L215.331765,4 C213.443765,1.664 210.819765,1.0658141e-14 207.043765,1.0658141e-14 C200.963765,1.0658141e-14 196.067765,4.416 196.067765,11.04 C196.067765,17.664 200.963765,22.112 207.043765,22.112 Z M224.283765,21.696 L224.283765,4.672 L236.731765,21.696 L239.291765,21.696 L239.291765,0.352 L236.635765,0.352 L236.635765,17.024 L224.347765,0.352 L221.627765,0.352 L221.627765,21.696 L224.283765,21.696 Z" id="DESIGN" fill="#454545"></path>
                </g>
                <g id="Group-7-Copy" transform="translate(0.000000, 1.000000)">
                    <g id="Group-3" transform="translate(16.000000, 0.000000)">
                        <mask id="mask-2" fill="white">
                            <use xlink:href="#path-1"></use>
                        </mask>
                        <g id="Clip-2"></g>
                        <path d="M5.65161481,3.93873435 C9.6370963,3.93873435 11.731763,6.80323053 11.731763,10.5176656 C11.731763,14.0746809 9.49161481,17.0651771 5.65161481,17.0651771 L4.65013333,17.0651771 L4.6485037,17.0651771 C4.53235556,17.0648565 4.42376296,17.1224061 4.35013333,17.2195511 C3.30628148,18.594971 1.90524444,19.6363145 0.236059259,20.2746504 C0.139911111,20.3115206 0.0747259259,20.4086656 0.0747259259,20.519116 C0.0747259259,20.784742 0.273688889,21.0000321 0.51917037,21.0000321 L5.65161481,21.0000321 C11.731763,21.0000321 15.9499852,16.8449176 15.9499852,10.5176656 C15.9499852,4.19041374 11.731763,0.00387938931 5.65161481,0.00387938931 L0.51917037,0.00387938931 C0.273688889,0.00387938931 0.0747259259,0.219329771 0.0747259259,0.48479542 C0.0747259259,0.597970992 0.141392593,0.697520611 0.239762963,0.735512977 C1.89442963,1.37288702 3.2850963,2.40829924 4.32554074,3.7721771 C4.40539259,3.87685649 4.52287407,3.93905496 4.64835556,3.93873435 L5.65161481,3.93873435 Z" id="Fill-1" fill="#C06468" mask="url(#mask-2)"></path>
                    </g>
                    <g id="Group-6">
                        <mask id="mask-4" fill="white">
                            <use xlink:href="#path-3"></use>
                        </mask>
                        <g id="Clip-5"></g>
                        <path d="M14.51938,10.5176656 C14.51938,6.80323053 12.3046084,3.93873435 8.09015099,3.93873435 L4.83801791,3.93873435 C4.57844255,3.93873435 4.36805649,4.15418473 4.36805649,4.41965038 L4.36805649,16.5842611 C4.36805649,16.849887 4.57844255,17.0651771 4.83801791,17.0651771 L8.09015099,17.0651771 C12.1507744,17.0651771 14.51938,14.0746809 14.51938,10.5176656 M-7.83269046e-05,20.519116 L-7.83269046e-05,0.48479542 C-7.83269046e-05,0.219329771 0.210464392,0.00387938931 0.4698831,0.00387938931 L8.09015099,0.00387938931 C14.51938,0.00387938931 18.9797839,4.19041374 18.9797839,10.5176656 C18.9797839,16.8449176 14.51938,21.0000321 8.09015099,21.0000321 L0.4698831,21.0000321 C0.210464392,21.0000321 -7.83269046e-05,20.784742 -7.83269046e-05,20.519116" id="Fill-4" fill="#C06468" mask="url(#mask-4)"></path>
                    </g>
                </g>
            </g>
        </g>
    </g>
</svg>