<?xml version="1.0" encoding="UTF-8"?>
<svg width="379px" height="391px" viewBox="0 0 379 391" version="1.1" xmlns="http://www.w3.org/2000/svg" xmlns:xlink="http://www.w3.org/1999/xlink">
    <!-- Generator: Sketch 64 (93537) - https://sketch.com -->
    <title>Group 22</title>
    <desc>Created with Sketch.</desc>
    <defs>
        <filter x="-32.5%" y="-16.6%" width="165.0%" height="133.2%" filterUnits="objectBoundingBox" id="filter-1">
            <feGaussianBlur stdDeviation="7" in="SourceGraphic"></feGaussianBlur>
        </filter>
        <filter x="-31.6%" y="-28.8%" width="163.2%" height="157.6%" filterUnits="objectBoundingBox" id="filter-2">
            <feGaussianBlur stdDeviation="8" in="SourceGraphic"></feGaussianBlur>
        </filter>
        <filter x="-19.4%" y="-10.3%" width="138.7%" height="120.7%" filterUnits="objectBoundingBox" id="filter-3">
            <feGaussianBlur stdDeviation="4" in="SourceGraphic"></feGaussianBlur>
        </filter>
        <filter x="-16.7%" y="-16.0%" width="133.3%" height="132.0%" filterUnits="objectBoundingBox" id="filter-4">
            <feGaussianBlur stdDeviation="5" in="SourceGraphic"></feGaussianBlur>
        </filter>
        <filter x="-48.0%" y="-38.7%" width="196.0%" height="177.4%" filterUnits="objectBoundingBox" id="filter-5">
            <feGaussianBlur stdDeviation="8" in="SourceGraphic"></feGaussianBlur>
        </filter>
        <filter x="-15.9%" y="-16.7%" width="131.9%" height="133.4%" filterUnits="objectBoundingBox" id="filter-6">
            <feGaussianBlur stdDeviation="5" in="SourceGraphic"></feGaussianBlur>
        </filter>
    </defs>
    <g id="Planfu" stroke="none" stroke-width="1" fill="none" fill-rule="evenodd">
        <g id="Desktop-HD-Copy-6" transform="translate(-302.000000, -884.000000)">
            <g id="Group-10-Copy-5" transform="translate(312.000000, 884.000000)">
                <g id="Group-22">
                    <g id="Rectangle_Isometric">
                        <polygon id="Rectangle-8" fill="#01418E" points="241 116.992187 294 121.657227 294 184 241 183.953369"></polygon>
                        <polygon id="Rectangle-8" fill="#46A7FF" points="299 181 344.960938 181 344.960938 239.015137 299 241.916016"></polygon>
                        <polygon id="Rectangle-8" fill="#46A7FF" points="0 139 85.8149414 142.723633 85.8149414 277.742188 0 285.412109"></polygon>
                        <g id="Group-10" transform="translate(175.000000, 0.000000)">
                            <polygon id="Re" fill-opacity="0.3" fill="#000000" filter="url(#filter-1)" points="0 18 64.6601562 29 64.6601562 144.47168 0 141"></polygon>
                            <g id="Group-11" transform="translate(15.000000, 0.000000)">
                                <rect id="Rectangle" fill="#01418E" x="0" y="0" width="3" height="123"></rect>
                                <polygon id="Rectangle-8" fill="#46A7FF" points="3 1.49213975e-13 64.6601562 11 64.6601562 126.47168 3 123"></polygon>
                            </g>
                        </g>
                        <g id="Group-13" transform="translate(94.000000, 93.000000)">
                            <polygon id="Rectangle-8" fill-opacity="0.3" fill="#000000" filter="url(#filter-2)" points="0 149 76 146.015137 76 220.358398 0 229.412109"></polygon>
                            <polygon id="Rectangle-8-Copy-3" fill="#01418E" points="0.125 1.19114787e-13 72 7.70605469 72 132.708008 0.125 134.111328"></polygon>
                            <polygon id="Rectangle-8" fill="#01418E" points="79 58 141 61 141 129 79 129"></polygon>
                            <polygon id="Rectangle-8-Copy-2" fill="#0062BA" points="79 137.816406 141 137.816406 141 252 79 262.357422"></polygon>
                            <g id="Rectangle-9" transform="translate(36.000000, 109.000000)">
                                <polygon id="Rectangle-8" fill="#46A7FF" points="4 3 76 0.0151367187 76 74.3583984 4 83.4121094"></polygon>
                                <rect id="Rectangle" fill="#01418E" x="0" y="3" width="4" height="80.4291992"></rect>
                            </g>
                        </g>
                        <g id="Group-9" transform="translate(242.000000, 190.000000)">
                            <polygon id="Rectangle" fill="#000000" opacity="0.3" filter="url(#filter-3)" points="0 4 62 4 62 113.161133 0 120"></polygon>
                            <polygon id="Rectangle-8-Copy-5" fill="#01418E" points="57 58.2854004 102.960938 55.2145996 102.960938 111.919922 57 118.916016"></polygon>
                            <g id="Group-8" transform="translate(14.000000, 0.000000)">
                                <polygon id="Rectangle-8" fill="#0062BA" points="4 0.748046875 58.0683594 0.748046875 58.0683594 108.754395 4 115.822754"></polygon>
                                <polygon id="Rectangle" fill="#01418E" transform="translate(2.000000, 58.277039) scale(-1, 1) translate(-2.000000, -58.277039) " points="0 0.766601562 4 0.766601562 4 115.787476 0 115.787476"></polygon>
                            </g>
                        </g>
                        <g id="Group-17" transform="translate(2.000000, 266.000000)">
                            <polygon id="Rectangle-8-Copy" fill-opacity="0.3" fill="#000000" filter="url(#filter-4)" points="0 29 90 20.2871094 90 98.4257813 0 114"></polygon>
                            <g id="Group-18" transform="translate(24.000000, 0.000000)">
                                <polygon id="Rectangle-8-Copy" fill="#0062BA" points="4 9 90 0.287109375 90 78.4257813 4 94"></polygon>
                                <rect id="Rectangle" fill="#003C83" x="0" y="9" width="4" height="85"></rect>
                            </g>
                        </g>
                        <g id="Group-14" transform="translate(301.000000, 93.000000)">
                            <polygon id="Rectangle-8" fill-opacity="0.3" fill="#000000" filter="url(#filter-5)" points="0 14 50 17.5444336 50 76 0 74.9533691"></polygon>
                            <g id="Group-16" transform="translate(14.000000, 0.000000)">
                                <polygon id="Rectangle-8" fill="#0062BA" points="4 0 50 3.54443359 50 62 4 60.9533691"></polygon>
                                <rect id="Rectangle" fill="#01418E" x="0" y="0" width="4" height="61"></rect>
                            </g>
                        </g>
                        <polygon id="Rectangle-8-Copy-4" fill="#01418E" points="94 8 166 20.3144531 166 93 94 84.5867088"></polygon>
                        <g id="Group-7" transform="translate(3.000000, 23.000000)">
                            <polygon id="Rectangle-8" fill-opacity="0.3" fill="#000000" filter="url(#filter-6)" transform="translate(49.475583, 61.586709) rotate(2.000000) translate(-49.475583, -61.586709) " points="2.40844674 16.615224 94.6495406 22.1025239 96.5427195 106.558194 5.54271947 106.369052"></polygon>
                            <g id="Group-3" transform="translate(22.000000, 0.000000)">
                                <polygon id="Rectangle-8" fill="#0062BA" points="4 1 90.6328125 9.71875 90.6328125 90.21875 4 86"></polygon>
                                <path d="M18.4384766,15.5908242 C18.4384766,15.9248102 18.3447275,16.2110208 18.1572266,16.4494646 C17.9697256,16.6879083 17.7207047,16.8577147 17.4101562,16.9588887 C17.7734393,17.1138809 18.0649403,17.3378444 18.284668,17.6307858 C18.5043956,17.9237272 18.6142578,18.2503697 18.6142578,18.610723 C18.6142578,19.1995932 18.4230976,19.6398873 18.0407715,19.9316185 C17.6584454,20.2233498 17.1713897,20.3455804 16.5795898,20.2983141 C15.9526336,20.2482398 15.4406758,20.0462191 15.0437012,19.6922459 C14.6467265,19.3382728 14.4482422,18.8668582 14.4482422,18.2779881 C14.4482422,17.9176347 14.5603016,17.6087169 14.7844238,17.3512253 C15.008546,17.0937336 15.3110333,16.9157465 15.6918945,16.8172586 C15.3637679,16.668004 15.1044931,16.4590655 14.9140625,16.1904368 C14.7236319,15.9218081 14.628418,15.6205052 14.628418,15.2865192 C14.628418,14.726946 14.8078595,14.3135477 15.166748,14.0463118 C15.5256366,13.7790759 15.9936495,13.6685079 16.5708008,13.7146043 C17.1157254,13.7581268 17.5632307,13.9425487 17.9133301,14.2678755 C18.2634295,14.5932023 18.4384766,15.0341808 18.4384766,15.5908242 Z M17.7529297,18.5243516 C17.7529297,18.175717 17.6394054,17.8795435 17.4123535,17.635822 C17.1853016,17.3921006 16.9047868,17.2569044 16.5708008,17.2302293 C16.2075177,17.2012143 15.9072277,17.2900223 15.6699219,17.496656 C15.432616,17.7032897 15.3139648,17.9809197 15.3139648,18.3295543 C15.3139648,18.6899076 15.4318836,18.987897 15.6677246,19.2235313 C15.9035656,19.4591656 16.2075177,19.5918393 16.5795898,19.6215562 C16.9135759,19.6482313 17.1926258,19.561389 17.416748,19.3610265 C17.6408703,19.1606641 17.7529297,18.8817753 17.7529297,18.5243516 Z M17.5727539,15.5348635 C17.5727539,15.2272448 17.4768076,14.9661662 17.2849121,14.75162 C17.0930166,14.5370738 16.8549819,14.4184538 16.5708008,14.3957566 C16.2573227,14.3707195 15.9995127,14.4460748 15.7973633,14.6218248 C15.5952138,14.7975749 15.4941406,15.0465798 15.4941406,15.368847 C15.4941406,15.694044 15.5966787,15.9659028 15.8017578,16.1844317 C16.006837,16.4029606 16.2661117,16.5247418 16.5795898,16.5497789 C16.863771,16.5724761 17.1003409,16.4902975 17.2893066,16.3032405 C17.4782724,16.1161836 17.5727539,15.8600604 17.5727539,15.5348635 Z M20.6401367,20.5303402 L19.7744141,20.4611959 L19.7744141,19.5735006 L20.6401367,19.6426448 L20.6401367,20.5303402 Z M20.6401367,16.6807308 L19.7744141,16.6115865 L19.7744141,15.7238912 L20.6401367,15.7930355 L20.6401367,16.6807308 Z M25.9091797,18.6923836 C25.9091797,19.41602 25.7253436,19.9740854 25.357666,20.3665965 C24.9899884,20.7591076 24.4956086,20.9305575 23.8745117,20.8809512 C23.2563446,20.8315789 22.7619647,20.5811579 22.3913574,20.1296808 C22.0207501,19.6782037 21.8354492,19.0906558 21.8354492,18.3670193 L21.8354492,16.48616 C21.8354492,15.7683829 22.0192853,15.2117824 22.3869629,14.8163416 C22.7546405,14.4209007 23.2475555,14.2478691 23.8657227,14.2972414 C24.4868195,14.3468477 24.9826642,14.5988504 25.3532715,15.0532572 C25.7238788,15.507664 25.9091797,16.0937472 25.9091797,16.8115242 L25.9091797,18.6923836 Z M25.043457,16.5622041 C25.043457,16.1022409 24.940919,15.7307737 24.7358398,15.4477913 C24.5307607,15.164809 24.2407245,15.0083447 23.8657227,14.9783937 C23.4936505,14.9486767 23.206544,15.0590453 23.0043945,15.3095028 C22.8022451,15.5599602 22.7011719,15.9151652 22.7011719,16.3751285 L22.7011719,18.6119449 C22.7011719,19.0719081 22.8044423,19.4448987 23.0109863,19.7309277 C23.2175303,20.0169567 23.5053692,20.1747104 23.8745117,20.2041934 C24.2495136,20.2341443 24.5380849,20.1231603 24.7402344,19.871238 C24.9423838,19.6193157 25.043457,19.2619135 25.043457,18.7990205 L25.043457,16.5622041 Z M30.9760742,19.0970707 C30.9760742,19.8207071 30.7922382,20.3787725 30.4245605,20.7712836 C30.0568829,21.1637947 29.5625031,21.3352446 28.9414062,21.2856383 C28.3232391,21.236266 27.8288593,20.985845 27.458252,20.5343679 C27.0876446,20.0828908 26.9023438,19.4953429 26.9023438,18.7717064 L26.9023438,16.8908471 C26.9023438,16.17307 27.0861798,15.6164695 27.4538574,15.2210287 C27.821535,14.8255878 28.31445,14.6525562 28.9326172,14.7019285 C29.553714,14.7515348 30.0495587,15.0035375 30.420166,15.4579443 C30.7907733,15.9123511 30.9760742,16.4984343 30.9760742,17.2162113 L30.9760742,19.0970707 Z M30.1103516,16.9668912 C30.1103516,16.506928 30.0078135,16.1354608 29.8027344,15.8524784 C29.5976552,15.5694961 29.3076191,15.4130318 28.9326172,15.3830808 C28.560545,15.3533638 28.2734385,15.4637324 28.0712891,15.7141899 C27.8691396,15.9646473 27.7680664,16.3198523 27.7680664,16.7798156 L27.7680664,19.016632 C27.7680664,19.4765952 27.8713369,19.8495858 28.0778809,20.1356148 C28.2844249,20.4216438 28.5722638,20.5793975 28.9414062,20.6088805 C29.3164081,20.6388314 29.6049795,20.5278474 29.8071289,20.2759251 C30.0092784,20.0240028 30.1103516,19.6666006 30.1103516,19.2037076 L30.1103516,16.9668912 Z M37.2602539,21.85777 C37.2309569,21.7118747 37.208252,21.5833535 37.1921387,21.4722028 C37.1760253,21.361052 37.1665039,21.2496969 37.1635742,21.1381342 C37.0024406,21.3537815 36.7922376,21.528153 36.532959,21.661254 C36.2736803,21.7943551 35.9946304,21.8489712 35.6958008,21.8251041 C35.2006811,21.7855594 34.8234876,21.6287257 34.564209,21.3545982 C34.3049303,21.0804706 34.175293,20.7207549 34.175293,20.2754402 C34.175293,19.8213363 34.359129,19.4807981 34.7268066,19.2538151 C35.0944843,19.0268322 35.5932586,18.9384962 36.2231445,18.9888044 L37.1635742,19.0639155 L37.1635742,18.5937006 C37.1635742,18.3153789 37.0786141,18.0881365 36.9086914,17.9119665 C36.7387687,17.7357965 36.4985367,17.6353114 36.1879883,17.6105083 C35.9067369,17.588045 35.6796884,17.6402227 35.5068359,17.7670429 C35.3339835,17.8938631 35.2475586,18.0554158 35.2475586,18.2517058 L34.4257812,18.1948605 L34.4169922,18.1677913 C34.3964843,17.8204485 34.5583479,17.5169733 34.9025879,17.2573565 C35.2468279,16.9977398 35.6914035,16.8896943 36.2363281,16.9332168 C36.7753933,16.9762713 37.2089827,17.1478631 37.5371094,17.4479974 C37.865236,17.7481316 38.0292969,18.1560064 38.0292969,18.671634 L38.0292969,20.9611848 C38.0292969,21.1311075 38.0380858,21.2958703 38.0556641,21.4554782 C38.0732423,21.6150861 38.1054685,21.7729318 38.1523438,21.9290202 L37.2602539,21.85777 Z M35.8232422,21.110185 C36.1367203,21.1352222 36.4194323,21.0772364 36.6713867,20.9362261 C36.9233411,20.7952158 37.087402,20.6237507 37.1635742,20.4218256 L37.1635742,19.6483881 L36.1923828,19.5708202 C35.8437483,19.5429752 35.5646983,19.6085775 35.3552246,19.7676292 C35.1457509,19.9266809 35.0410156,20.1248567 35.0410156,20.3621626 C35.0410156,20.5731011 35.1069329,20.7453564 35.2387695,20.8789335 C35.3706061,21.0125107 35.5654284,21.0895937 35.8232422,21.110185 Z M40.0595703,17.3264654 L40.1210938,17.9554026 C40.276368,17.7422172 40.4733875,17.5829058 40.7121582,17.4774638 C40.9509289,17.3720218 41.228514,17.331937 41.5449219,17.3572081 C41.8613297,17.3824792 42.1330555,17.4774231 42.3601074,17.6420426 C42.5871593,17.8066621 42.7578119,18.0400163 42.8720703,18.3421122 C43.0244148,18.0818175 43.2228992,17.8830727 43.4675293,17.745872 C43.7121594,17.6086713 43.9985335,17.5531753 44.3266602,17.5793824 C44.810061,17.6179911 45.1923814,17.8147847 45.4736328,18.1697691 C45.7548842,18.5247535 45.8955078,19.0362241 45.8955078,19.7041962 L45.8955078,22.5474579 L45.0297852,22.4783136 L45.0297852,19.6262628 C45.0297852,19.1575105 44.9492196,18.819292 44.7880859,18.6115973 C44.6269523,18.4039025 44.3867203,18.2873043 44.0673828,18.2617992 C43.7714829,18.238166 43.5319833,18.3215755 43.348877,18.5120301 C43.1657706,18.7024848 43.0581056,18.9531605 43.0258789,19.2640647 L43.0258789,22.3182639 L42.1557617,22.2487686 L42.1557617,19.3967179 C42.1557617,18.9514031 42.0729989,18.6188685 41.9074707,18.3991039 C41.7419425,18.1793394 41.5039078,18.0570574 41.1933594,18.0322542 C40.9296862,18.0111949 40.7128915,18.0480785 40.5429688,18.1429059 C40.373046,18.2377334 40.2426762,18.3796631 40.1518555,18.5686994 L40.1518555,22.0887189 L39.2861328,22.0195746 L39.2861328,17.2646918 L40.0595703,17.3264654 Z M17.9199219,29.1133727 L17.9462891,29.1154786 L19.9897461,24.0799567 L21.0664063,24.1659483 L21.0664063,30.5643858 L20.2006836,30.4952415 L20.2006836,25.7008079 L20.1743164,25.6943075 L18.2363281,30.3383507 L17.6342773,30.2902656 L15.6391602,25.1738866 L15.612793,25.1761752 L15.612793,30.1288119 L14.7470703,30.0596677 L14.7470703,23.6612302 L15.8852539,23.7521356 L17.9199219,29.1133727 Z M24.4150391,30.9241225 C23.7324185,30.8696023 23.1999531,30.6088154 22.817627,30.1417538 C22.4353008,29.6746923 22.2441406,29.0852115 22.2441406,28.3732939 L22.2441406,28.1799345 C22.2441406,27.4973139 22.4411601,26.948358 22.8352051,26.5330503 C23.22925,26.1177427 23.7104464,25.9327889 24.2788086,25.9781833 C24.914554,26.0289596 25.3913558,26.2647931 25.7092285,26.685691 C26.0271012,27.106589 26.1860352,27.6451565 26.1860352,28.3014098 L26.1860352,28.758441 L23.1450195,28.5155585 L23.1318359,28.5364782 C23.1318359,29.0140197 23.2373036,29.4098906 23.4482422,29.7241028 C23.6591807,30.038315 23.9814431,30.2127338 24.4150391,30.2473647 C24.7080093,30.2707639 24.9650868,30.2495487 25.1862793,30.1837186 C25.4074718,30.1178885 25.5971672,30.0180501 25.7553711,29.8842006 L26.09375,30.4737265 C25.9238273,30.6242183 25.6997084,30.7447446 25.4213867,30.8353089 C25.143065,30.9258732 24.8076192,30.9554774 24.4150391,30.9241225 Z M24.2788086,26.6593356 C23.9770493,26.6352345 23.7272959,26.7317409 23.529541,26.9488577 C23.3317861,27.1659746 23.2109377,27.4544153 23.1669922,27.8141885 L23.1757812,27.8368631 L25.3203125,28.0081444 L25.3203125,27.9378319 C25.3203125,27.592127 25.2353524,27.2996997 25.0654297,27.0605411 C24.895507,26.8213825 24.6333026,26.6876487 24.2788086,26.6593356 Z M28.0932617,31.1256128 L27.2275391,31.0564685 L27.2275391,24.2009997 L28.0932617,24.270144 L28.0932617,31.1256128 Z M35.0849609,30.0360826 L32.6767578,29.8437422 L32.1054688,31.4460632 L31.222168,31.375515 L33.5292969,25.1613452 L34.2719727,25.2206619 L36.5307617,31.7995063 L35.6474609,31.7289581 L35.0849609,30.0360826 Z M32.9272461,29.1386507 L34.8388672,29.2913297 L33.9072266,26.4703386 L33.8808594,26.4682327 L32.9272461,29.1386507 Z M38.1259766,27.1720315 L38.1875,27.8844648 C38.3457039,27.645146 38.5441883,27.465444 38.782959,27.3453535 C39.0217297,27.225263 39.2934555,27.1773861 39.5981445,27.2017212 C40.1108424,27.2426698 40.5078111,27.4245202 40.7890625,27.7472779 C41.0703139,28.0700356 41.2109375,28.5448855 41.2109375,29.1718418 L41.2109375,32.1733066 L40.3452148,32.1041623 L40.3452148,29.1202756 C40.3452148,28.7013282 40.262452,28.3973577 40.0969238,28.208355 C39.9313957,28.0193524 39.6787126,27.9112811 39.3388672,27.884138 C39.0722643,27.8628448 38.8459482,27.8982354 38.6599121,27.9903111 C38.473876,28.0823867 38.3266607,28.2207738 38.2182617,28.4054764 L38.2182617,31.934285 L37.3525391,31.8651407 L37.3525391,27.1102579 L38.1259766,27.1720315 Z M42.2700195,29.9683435 C42.2700195,29.2036912 42.433348,28.600043 42.7600098,28.1573808 C43.0866716,27.7147186 43.5444306,27.5169066 44.1333008,27.563939 C44.4116225,27.5861682 44.6584462,27.6571508 44.8737793,27.7768888 C45.0891124,27.8966267 45.2729485,28.0607221 45.425293,28.2691797 L45.425293,25.6544336 L46.2910156,25.7235779 L46.2910156,32.5790467 L45.6274414,32.5260477 L45.4956055,31.9134674 C45.3403313,32.1295826 45.1484386,32.2871062 44.9199219,32.3860429 C44.6914051,32.4849796 44.426271,32.5223968 44.1245117,32.4982956 C43.5444307,32.4519652 43.0903337,32.205494 42.762207,31.7588747 C42.4340804,31.3122553 42.2700195,30.746179 42.2700195,30.0606287 L42.2700195,29.9683435 Z M43.1357422,30.1297729 C43.1357422,30.6102441 43.2338857,31.0026003 43.4301758,31.3068535 C43.6264658,31.6111066 43.9311503,31.7797271 44.3442383,31.8127199 C44.6020521,31.8333112 44.8188468,31.7920332 44.9946289,31.6888846 C45.170411,31.5857361 45.3139643,31.4331406 45.425293,31.2310938 L45.425293,29.0118555 C45.3139643,28.8066738 45.1696786,28.6391455 44.9924316,28.5092658 C44.8151847,28.379386 44.602052,28.3045026 44.3530273,28.2846133 C43.9370096,28.2513864 43.6301279,28.3982612 43.432373,28.7252418 C43.2346182,29.0522225 43.1357422,29.4896335 43.1357422,30.0374878 L43.1357422,30.1297729 Z M49.5517578,32.9317636 C48.8691372,32.8772435 48.3366718,32.6164565 47.9543457,32.1493949 C47.5720196,31.6823334 47.3808594,31.0928526 47.3808594,30.380935 L47.3808594,30.1875756 C47.3808594,29.504955 47.5778789,28.9559991 47.9719238,28.5406915 C48.3659688,28.1253838 48.8471651,27.94043 49.4155273,27.9858244 C50.0512727,28.0366007 50.5280746,28.2724342 50.8459473,28.6933321 C51.1638199,29.1142301 51.3227539,29.6527976 51.3227539,30.3090509 L51.3227539,30.7660821 L48.2817383,30.5231997 L48.2685547,30.5441194 C48.2685547,31.0216608 48.3740224,31.4175317 48.5849609,31.7317439 C48.7958995,32.0459561 49.1181619,32.220375 49.5517578,32.2550058 C49.844728,32.278405 50.1018055,32.2571898 50.322998,32.1913597 C50.5441906,32.1255296 50.7338859,32.0256913 50.8920898,31.8918417 L51.2304688,32.4813677 C51.060546,32.6318594 50.8364272,32.7523857 50.5581055,32.84295 C50.2797838,32.9335143 49.9443379,32.9631185 49.5517578,32.9317636 Z M49.4155273,28.6669768 C49.113768,28.6428756 48.8640147,28.739382 48.6662598,28.9564988 C48.4685049,29.1736157 48.3476565,29.4620564 48.3037109,29.8218296 L48.3125,29.8445042 L50.4570312,30.0157855 L50.4570312,29.945473 C50.4570312,29.5997681 50.3720712,29.3073408 50.2021484,29.0681822 C50.0322257,28.8290236 49.7700213,28.6952898 49.4155273,28.6669768 Z M54.5439453,29.2479644 L54.1000977,29.1861476 C53.8715809,29.1678962 53.6789559,29.2067101 53.5222168,29.3025906 C53.3654777,29.398471 53.2446293,29.5411612 53.159668,29.7306654 L53.159668,33.1276381 L52.2939453,33.0584938 L52.2939453,28.303611 L53.0673828,28.3653846 L53.1508789,29.0663893 C53.2856452,28.8310579 53.4519033,28.6524441 53.6496582,28.5305426 C53.8474131,28.4086411 54.075194,28.3579867 54.3330078,28.378578 C54.3974613,28.3837258 54.4589841,28.3937665 54.5175781,28.4087003 C54.5761722,28.4236341 54.6245115,28.4384811 54.6625977,28.4532418 L54.5439453,29.2479644 Z M58.2089844,32.2521127 C58.2089844,32.061682 58.1364753,31.9006189 57.9914551,31.7689185 C57.8464348,31.6372181 57.5717794,31.509814 57.1674805,31.3867024 C56.6079074,31.2218921 56.17798,31.019099 55.8776855,30.7783168 C55.5773911,30.5375347 55.4272461,30.2355066 55.4272461,29.8722235 C55.4272461,29.4855029 55.5920394,29.1676133 55.9216309,28.9185454 C56.2512224,28.6694775 56.67822,28.5658874 57.2026367,28.607772 C57.7417019,28.6508265 58.178221,28.8321737 58.512207,29.151819 C58.8461931,29.4714643 59.0058594,29.8255218 58.9912109,30.2140023 L58.9824219,30.2396675 L58.15625,30.1736821 C58.15625,29.9686029 58.066163,29.7753745 57.8859863,29.593991 C57.7058096,29.4126074 57.4780287,29.3109196 57.2026367,29.2889243 C56.8979477,29.2645892 56.6701668,29.3152435 56.5192871,29.4408889 C56.3684074,29.5665343 56.2929687,29.72457 56.2929687,29.9150006 C56.2929687,30.1025016 56.3581536,30.2527259 56.4885254,30.3656781 C56.6188971,30.4786303 56.8876933,30.5938478 57.2949219,30.7113341 C57.8779326,30.880946 58.320311,31.0905929 58.6220703,31.3402811 C58.9238296,31.5899694 59.074707,31.8964504 59.074707,32.2597335 C59.074707,32.6816106 58.9040544,33.0122156 58.5627441,33.2515585 C58.2214338,33.4909013 57.7753934,33.588576 57.2246094,33.5445855 C56.618161,33.4961492 56.1406267,33.304202 55.7919922,32.9687382 C55.4433576,32.6332744 55.2778319,32.261171 55.2954102,31.8524166 L55.3041992,31.8267514 L56.1303711,31.8927368 C56.1450196,32.2015255 56.2592763,32.4355023 56.4731445,32.5946743 C56.6870128,32.7538462 56.9374986,32.8448965 57.2246094,32.8678277 C57.5322281,32.8923968 57.7731925,32.8464575 57.9475098,32.7300083 C58.121827,32.6135591 58.2089844,32.4542621 58.2089844,32.2521127 Z M59.9492188,31.2485251 C59.9492188,30.5453966 60.1396465,29.9812659 60.5205078,29.5561162 C60.9013691,29.1309664 61.4184538,28.9444845 62.0717773,28.9966647 C62.7309603,29.0493129 63.2517071,29.3179528 63.6340332,29.8025926 C64.0163593,30.2872324 64.2075195,30.8825725 64.2075195,31.5886307 L64.2075195,31.6853104 C64.2075195,32.3942983 64.0170917,32.9591614 63.6362305,33.3799166 C63.2553692,33.8006717 62.7368197,33.9848395 62.0805664,33.9324253 C61.4243131,33.8800111 60.9050312,33.6122205 60.5227051,33.1290456 C60.1403789,32.6458706 59.9492188,32.051263 59.9492188,31.3452048 L59.9492188,31.2485251 Z M60.8149414,31.414349 C60.8149414,31.9182578 60.9211415,32.3427514 61.1335449,32.6878424 C61.3459483,33.0329335 61.661619,33.2222066 62.0805664,33.2556674 C62.4936544,33.2886603 62.8071278,33.1496362 63.0209961,32.838591 C63.2348644,32.5275458 63.3417969,32.1200749 63.3417969,31.6161661 L63.3417969,31.5194864 C63.3417969,31.0214371 63.2341319,30.5982914 63.0187988,30.2500366 C62.8034657,29.9017818 62.487795,29.7110439 62.0717773,29.677817 C61.6586893,29.6448242 61.3459483,29.7853716 61.1335449,30.0994635 C60.9211415,30.4135554 60.8149414,30.81962 60.8149414,31.3176694 L60.8149414,31.414349 Z M66.0400391,29.4014959 L66.1015625,30.1139292 C66.2597664,29.8746104 66.4582508,29.6949084 66.6970215,29.5748179 C66.9357922,29.4547274 67.207518,29.4068505 67.512207,29.4311856 C68.0249049,29.4721342 68.4218736,29.6539846 68.703125,29.9767423 C68.9843764,30.2995 69.125,30.7743499 69.125,31.4013062 L69.125,34.402771 L68.2592773,34.3336267 L68.2592773,31.34974 C68.2592773,30.9307926 68.1765145,30.6268221 68.0109863,30.4378194 C67.8454582,30.2488168 67.5927751,30.1407455 67.2529297,30.1136024 C66.9863268,30.0923092 66.7600107,30.1276998 66.5739746,30.2197755 C66.3879385,30.3118511 66.2407232,30.4502382 66.1323242,30.6349408 L66.1323242,34.1637494 L65.2666016,34.0946051 L65.2666016,29.3397223 L66.0400391,29.4014959 Z M17.9199219,39.1133727 L17.9462891,39.1154786 L19.9897461,34.0799567 L21.0664063,34.1659483 L21.0664063,40.5643858 L20.2006836,40.4952415 L20.2006836,35.7008079 L20.1743164,35.6943075 L18.2363281,40.3383507 L17.6342773,40.2902656 L15.6391602,35.1738866 L15.612793,35.1761752 L15.612793,40.1288119 L14.7470703,40.0596677 L14.7470703,33.6612302 L15.8852539,33.7521356 L17.9199219,39.1133727 Z M25.3686523,40.9080013 C25.3393553,40.762106 25.3166505,40.6335849 25.3005371,40.5224341 C25.2844237,40.4112833 25.2749024,40.2999282 25.2719727,40.1883656 C25.110839,40.4040128 24.9006361,40.5783843 24.6413574,40.7114854 C24.3820788,40.8445864 24.1030288,40.8992026 23.8041992,40.8753354 C23.3090796,40.8357907 22.9318861,40.678957 22.6726074,40.4048295 C22.4133288,40.130702 22.2836914,39.7709862 22.2836914,39.3256715 C22.2836914,38.8715677 22.4675275,38.5310294 22.8352051,38.3040464 C23.2028827,38.0770635 23.701657,37.9887275 24.331543,38.0390358 L25.2719727,38.1141468 L25.2719727,37.643932 C25.2719727,37.3656103 25.1870126,37.1383678 25.0170898,36.9621978 C24.8471671,36.7860278 24.6069351,36.6855427 24.2963867,36.6607396 C24.0151353,36.6382764 23.7880868,36.6904541 23.6152344,36.8172742 C23.4423819,36.9440944 23.355957,37.1056471 23.355957,37.3019371 L22.5341797,37.2450918 L22.5253906,37.2180226 C22.5048827,36.8706798 22.6667463,36.5672046 23.0109863,36.3075878 C23.3552263,36.0479711 23.799802,35.9399256 24.3447266,35.9834481 C24.8837918,36.0265026 25.3173812,36.1980944 25.6455078,36.4982287 C25.9736345,36.7983629 26.1376953,37.2062377 26.1376953,37.7218653 L26.1376953,40.0114161 C26.1376953,40.1813388 26.1464843,40.3461016 26.1640625,40.5057095 C26.1816407,40.6653174 26.213867,40.8231631 26.2607422,40.9792515 L25.3686523,40.9080013 Z M23.9316406,40.1604163 C24.2451188,40.1854535 24.5278308,40.1274678 24.7797852,39.9864575 C25.0317395,39.8454471 25.1958004,39.673982 25.2719727,39.472057 L25.2719727,38.6986195 L24.3007812,38.6210515 C23.9521467,38.5932065 23.6730968,38.6588088 23.463623,38.8178605 C23.2541493,38.9769122 23.1494141,39.175088 23.1494141,39.4123939 C23.1494141,39.6233325 23.2153314,39.7955877 23.347168,39.9291649 C23.4790046,40.062742 23.6738268,40.139825 23.9316406,40.1604163 Z M30.1586914,40.0117677 C30.1586914,39.8213371 30.0861824,39.660274 29.9411621,39.5285736 C29.7961419,39.3968732 29.5214864,39.2694691 29.1171875,39.1463574 C28.5576144,38.9815471 28.127687,38.778754 27.8273926,38.5379719 C27.5270981,38.2971897 27.3769531,37.9951616 27.3769531,37.6318786 C27.3769531,37.2451579 27.5417464,36.9272684 27.8713379,36.6782005 C28.2009294,36.4291326 28.6279271,36.3255424 29.1523438,36.367427 C29.6914089,36.4104815 30.127928,36.5918287 30.4619141,36.911474 C30.7959001,37.2311193 30.9555665,37.5851769 30.940918,37.9736573 L30.9321289,37.9993225 L30.105957,37.9333371 C30.105957,37.728258 30.01587,37.5350295 29.8356934,37.353646 C29.6555167,37.1722625 29.4277358,37.0705746 29.1523438,37.0485794 C28.8476547,37.0242442 28.6198738,37.0748986 28.4689941,37.200544 C28.3181145,37.3261894 28.2426758,37.484225 28.2426758,37.6746557 C28.2426758,37.8621566 28.3078607,38.0123809 28.4382324,38.1253332 C28.5686042,38.2382854 28.8374003,38.3535029 29.2446289,38.4709891 C29.8276396,38.640601 30.270018,38.8502479 30.5717773,39.0999362 C30.8735367,39.3496244 31.0244141,39.6561055 31.0244141,40.0193885 C31.0244141,40.4412656 30.8537615,40.7718707 30.5124512,41.0112135 C30.1711409,41.2505563 29.7251004,41.348231 29.1743164,41.3042405 C28.5678681,41.2558042 28.0903338,41.063857 27.7416992,40.7283932 C27.3930647,40.3929295 27.227539,40.020826 27.2451172,39.6120717 L27.2539062,39.5864064 L28.0800781,39.6523918 C28.0947266,39.9611805 28.2089833,40.1951573 28.4228516,40.3543293 C28.6367198,40.5135013 28.8872056,40.6045515 29.1743164,40.6274827 C29.4819351,40.6520519 29.7228995,40.6061125 29.8972168,40.4896633 C30.0715341,40.3732141 30.1586914,40.2139171 30.1586914,40.0117677 Z M34.8652344,40.3876739 C34.8652344,40.1972433 34.7927253,40.0361802 34.6477051,39.9044798 C34.5026848,39.7727794 34.2280294,39.6453753 33.8237305,39.5222636 C33.2641574,39.3574534 32.83423,39.1546602 32.5339355,38.9138781 C32.2336411,38.6730959 32.0834961,38.3710679 32.0834961,38.0077848 C32.0834961,37.6210641 32.2482894,37.3031746 32.5778809,37.0541067 C32.9074724,36.8050388 33.33447,36.7014487 33.8588867,36.7433332 C34.3979519,36.7863878 34.834471,36.967735 35.168457,37.2873803 C35.5024431,37.6070256 35.6621094,37.9610831 35.6474609,38.3495635 L35.6386719,38.3752287 L34.8125,38.3092433 C34.8125,38.1041642 34.722413,37.9109357 34.5422363,37.7295522 C34.3620596,37.5481687 34.1342787,37.4464808 33.8588867,37.4244856 C33.5541977,37.4001504 33.3264168,37.4508048 33.1755371,37.5764502 C33.0246574,37.7020956 32.9492188,37.8601313 32.9492188,38.0505619 C32.9492188,38.2380628 33.0144036,38.3882872 33.1447754,38.5012394 C33.2751471,38.6141916 33.5439433,38.7294091 33.9511719,38.8468954 C34.5341826,39.0165072 34.976561,39.2261542 35.2783203,39.4758424 C35.5800796,39.7255306 35.730957,40.0320117 35.730957,40.3952948 C35.730957,40.8171719 35.5603044,41.1477769 35.2189941,41.3871197 C34.8776838,41.6264625 34.4316434,41.7241373 33.8808594,41.6801468 C33.274411,41.6317104 32.7968767,41.4397632 32.4482422,41.1042995 C32.0996076,40.7688357 31.9340819,40.3967322 31.9516602,39.9879779 L31.9604492,39.9623127 L32.7866211,40.0282981 C32.8012696,40.3370868 32.9155263,40.5710636 33.1293945,40.7302355 C33.3432628,40.8894075 33.5937486,40.9804577 33.8808594,41.0033889 C34.1884781,41.0279581 34.4294425,40.9820188 34.6037598,40.8655695 C34.778077,40.7491203 34.8652344,40.5898234 34.8652344,40.3876739 Z M39.7299805,42.0550242 C39.7006834,41.9091289 39.6779786,41.7806078 39.6618652,41.669457 C39.6457519,41.5583062 39.6362305,41.4469512 39.6333008,41.3353885 C39.4721672,41.5510357 39.2619642,41.7254072 39.0026855,41.8585083 C38.7434069,41.9916094 38.464357,42.0462255 38.1655273,42.0223583 C37.6704077,41.9828137 37.2932142,41.8259799 37.0339355,41.5518524 C36.7746569,41.2777249 36.6450195,40.9180092 36.6450195,40.4726944 C36.6450195,40.0185906 36.8288556,39.6780523 37.1965332,39.4510694 C37.5642108,39.2240864 38.0629851,39.1357504 38.6928711,39.1860587 L39.6333008,39.2611697 L39.6333008,38.7909549 C39.6333008,38.5126332 39.5483407,38.2853907 39.378418,38.1092207 C39.2084952,37.9330507 38.9682633,37.8325657 38.6577148,37.8077625 C38.3764634,37.7852993 38.1494149,37.837477 37.9765625,37.9642972 C37.8037101,38.0911173 37.7172852,38.25267 37.7172852,38.4489601 L36.8955078,38.3921147 L36.8867188,38.3650455 C36.8662108,38.0177028 37.0280745,37.7142275 37.3723145,37.4546108 C37.7165545,37.194994 38.1611301,37.0869485 38.7060547,37.130471 C39.2451199,37.1735255 39.6787093,37.3451174 40.0068359,37.6452516 C40.3349626,37.9453859 40.4990234,38.3532607 40.4990234,38.8688882 L40.4990234,41.158439 C40.4990234,41.3283617 40.5078124,41.4931246 40.5253906,41.6527324 C40.5429688,41.8123403 40.5751951,41.9701861 40.6220703,42.1262744 L39.7299805,42.0550242 Z M38.2929688,41.3074393 C38.6064469,41.3324764 38.8891589,41.2744907 39.1411133,41.1334804 C39.3930677,40.9924701 39.5571285,40.821005 39.6333008,40.6190799 L39.6333008,39.8456424 L38.6621094,39.7680744 C38.3134748,39.7402294 38.0344249,39.8058317 37.8249512,39.9648834 C37.6154775,40.1239351 37.5107422,40.322111 37.5107422,40.5594168 C37.5107422,40.7703554 37.5766595,40.9426107 37.7084961,41.0761878 C37.8403327,41.2097649 38.035155,41.286848 38.2929688,41.3074393 Z M41.6020508,39.9149936 C41.6020508,39.1503413 41.7653792,38.5466931 42.092041,38.1040309 C42.4187028,37.6613687 42.8749971,37.4634397 43.4609375,37.5102381 C43.7626968,37.5343393 44.0278309,37.6163056 44.2563477,37.7561397 C44.4848644,37.8959737 44.676757,38.086347 44.8320313,38.3272653 L44.9375,37.7160601 L45.6274414,37.7711649 L45.6274414,42.5524149 C45.6274414,43.161793 45.4501971,43.6156496 45.0957031,43.9139983 C44.7412092,44.2123471 44.2299838,44.3348445 43.5620117,44.2814944 C43.333495,44.263243 43.0866712,44.2120357 42.8215332,44.1278708 C42.5563952,44.0437059 42.3227549,43.9393528 42.1206055,43.8148084 L42.2524414,43.1529747 C42.4194344,43.2542033 42.6208484,43.3413342 42.8566895,43.4143701 C43.0925305,43.4874059 43.3247059,43.5330488 43.5532227,43.5513002 C43.9750998,43.5849951 44.2819815,43.513559 44.473877,43.33699 C44.6657724,43.160421 44.7617187,42.8758507 44.7617187,42.4832706 L44.7617187,41.9427433 C44.6064445,42.1295615 44.4204112,42.2655806 44.2036133,42.3508048 C43.9868153,42.4360289 43.7363295,42.4672919 43.4521484,42.4445947 C42.8720674,42.3982643 42.4187028,42.1518516 42.092041,41.7053493 C41.7653792,41.2588469 41.6020508,40.6928291 41.6020508,40.0072787 L41.6020508,39.9149936 Z M42.4677734,40.076423 C42.4677734,40.5539645 42.565917,40.9455883 42.762207,41.2513063 C42.9584971,41.5570243 43.2617167,41.7262602 43.671875,41.759019 C43.9326185,41.7798443 44.150878,41.7379509 44.3266602,41.6333375 C44.5024423,41.528724 44.6474604,41.3725835 44.7617187,41.1649113 L44.7617187,38.9764347 C44.6503901,38.7653936 44.505372,38.5934123 44.3266602,38.4604859 C44.1479483,38.3275595 43.9326184,38.2510357 43.6806641,38.2309124 C43.2675761,38.1979195 42.9621592,38.3449113 42.7644043,38.6718919 C42.5666494,38.9988726 42.4677734,39.4362836 42.4677734,39.9841379 L42.4677734,40.076423 Z M48.8398438,42.8749038 C48.1572231,42.8203837 47.6247578,42.5595967 47.2424316,42.0925352 C46.8601055,41.6254736 46.6689453,41.0359928 46.6689453,40.3240752 L46.6689453,40.1307158 C46.6689453,39.4480952 46.8659648,38.8991394 47.2600098,38.4838317 C47.6540547,38.068524 48.1352511,37.8835702 48.7036133,37.9289646 C49.3393586,37.9797409 49.8161605,38.2155745 50.1340332,38.6364724 C50.4519059,39.0573703 50.6108398,39.5959378 50.6108398,40.2521911 L50.6108398,40.7092224 L47.5698242,40.4663399 L47.5566406,40.4872596 C47.5566406,40.964801 47.6621083,41.3606719 47.8730469,41.6748841 C48.0839854,41.9890963 48.4062478,42.1635152 48.8398438,42.198146 C49.132814,42.2215452 49.3898915,42.2003301 49.611084,42.1344999 C49.8322765,42.0686698 50.0219719,41.9688315 50.1801758,41.834982 L50.5185547,42.4245079 C50.348632,42.5749997 50.1245131,42.6955259 49.8461914,42.7860902 C49.5678697,42.8766545 49.2324238,42.9062587 48.8398438,42.8749038 Z M48.7036133,38.610117 C48.401854,38.5860158 48.1521006,38.6825222 47.9543457,38.8996391 C47.7565908,39.1167559 47.6357424,39.4051966 47.5917969,39.7649698 L47.6005859,39.7876445 L49.7451172,39.9589257 L49.7451172,39.8886132 C49.7451172,39.5429084 49.6601571,39.250481 49.4902344,39.0113224 C49.3203117,38.7721638 49.0581072,38.63843 48.7036133,38.610117 Z" id="8:00-am-Mel-Anderson" fill="#FFFFFF" opacity="0.5"></path>
                                <polygon id="Rectangle-8" fill="#01418E" points="0 0.951660156 4 0.951660156 4 86 0 86"></polygon>
                            </g>
                        </g>
                    </g>
                </g>
            </g>
        </g>
    </g>
</svg>