<?xml version="1.0" encoding="UTF-8"?>
<svg width="128px" height="85px" viewBox="0 0 128 85" version="1.1" xmlns="http://www.w3.org/2000/svg" xmlns:xlink="http://www.w3.org/1999/xlink">
    <!-- Generator: Sketch 64 (93537) - https://sketch.com -->
    <title>Group 7 Copy</title>
    <desc>Created with Sketch.</desc>
    <defs>
        <polygon id="path-1" points="0.298903704 0.0156348479 63.7997037 0.0156348479 63.7997037 84.6349206 0.298903704 84.6349206"></polygon>
        <polygon id="path-3" points="0 0.0156348479 75.9191355 0.0156348479 75.9191355 84.6349206 0 84.6349206"></polygon>
    </defs>
    <g id="about" stroke="none" stroke-width="1" fill="none" fill-rule="evenodd">
        <g id="Desktop-HD-Copy-8" transform="translate(-307.000000, -295.000000)">
            <g id="Group" transform="translate(307.000000, 294.000000)">
                <g id="Group-7" transform="translate(0.000000, 0.500000)">
                    <g id="Group-7-Copy" transform="translate(0.000000, 0.682540)">
                        <g id="Group-3" transform="translate(64.000000, 0.000000)">
                            <mask id="mask-2" fill="white">
                                <use xlink:href="#path-1"></use>
                            </mask>
                            <g id="Clip-2"></g>
                            <path d="M22.6064593,15.8740223 C38.5483852,15.8740223 46.9270519,27.4186132 46.9270519,42.388657 C46.9270519,56.724262 37.9664593,68.7766624 22.6064593,68.7766624 L18.6005333,68.7766624 L18.5940148,68.7766624 C18.1294222,68.7753702 17.6950519,69.0073087 17.4005333,69.3988259 C13.2251259,74.9420902 7.62097778,79.1389486 0.944237037,81.7115917 C0.559644444,81.8601874 0.298903704,82.2517046 0.298903704,82.6968456 C0.298903704,83.7673804 1.09475556,84.6350498 2.07668148,84.6350498 L22.6064593,84.6350498 C46.9270519,84.6350498 63.7999407,67.8889648 63.7999407,42.388657 C63.7999407,16.8883493 46.9270519,0.0156348479 22.6064593,0.0156348479 L2.07668148,0.0156348479 C1.09475556,0.0156348479 0.298903704,0.88395037 0.298903704,1.95383914 C0.298903704,2.40996321 0.56557037,2.8111715 0.959051852,2.96428964 C7.57771852,5.53305639 13.1403852,9.70601023 17.302163,15.2027576 C17.6215704,15.6246401 18.0914963,15.8753145 18.5934222,15.8740223 L22.6064593,15.8740223 Z" id="Fill-1" fill="#C06468" mask="url(#mask-2)"></path>
                        </g>
                        <g id="Group-6">
                            <mask id="mask-4" fill="white">
                                <use xlink:href="#path-3"></use>
                            </mask>
                            <g id="Clip-5"></g>
                            <path d="M58.0775199,42.388657 C58.0775199,27.4186132 49.2184337,15.8740223 32.360604,15.8740223 L19.3520716,15.8740223 C18.3137702,15.8740223 17.4722259,16.7423379 17.4722259,17.8122266 L17.4722259,66.8384581 C17.4722259,67.9089929 18.3137702,68.7766624 19.3520716,68.7766624 L32.360604,68.7766624 C48.6030975,68.7766624 58.0775199,56.724262 58.0775199,42.388657 M-0.000313307618,82.6968456 L-0.000313307618,1.95383914 C-0.000313307618,0.88395037 0.84185757,0.0156348479 1.8795324,0.0156348479 L32.360604,0.0156348479 C58.0775199,0.0156348479 75.9191355,16.8883493 75.9191355,42.388657 C75.9191355,67.8889648 58.0775199,84.6350498 32.360604,84.6350498 L1.8795324,84.6350498 C0.84185757,84.6350498 -0.000313307618,83.7673804 -0.000313307618,82.6968456" id="Fill-4" fill="#C06468" mask="url(#mask-4)"></path>
                        </g>
                    </g>
                </g>
            </g>
        </g>
    </g>
</svg>